<svg width="202" height="31" viewBox="0 0 202 31" fill="none" xmlns="http://www.w3.org/2000/svg">
<path d="M104.7 25.007L92.1739 12.4805L89.0418 15.6126L102.692 29.2631C103.8 30.3712 105.598 30.3712 106.706 29.2631L120.356 15.6126L117.224 12.4805L104.698 25.007H104.7Z" fill="#E2067A"/>
<path d="M100.952 9.36836L104.698 13.1145L108.444 9.36836L106.57 7.49429L108.176 5.88823C108.842 5.2222 109.92 5.2222 110.584 5.88823L114.064 9.36836L106.302 17.1307C105.416 18.0167 103.978 18.0167 103.09 17.1307L95.3299 9.36836L104.696 0L107.506 2.81011" fill="#991555"/>
<path d="M2.03832 8.62833C2.20832 8.62833 2.29232 8.71233 2.29232 8.88434V19.9868H8.46443C8.63443 19.9868 8.72043 20.0708 8.72043 20.2408V21.2448C8.72043 21.4148 8.63443 21.5008 8.46443 21.5008H0.830299C0.660296 21.5008 0.576294 21.4168 0.576294 21.2448V8.88434C0.576294 8.71433 0.660296 8.62833 0.830299 8.62833H2.03832Z" fill="white"/>
<path d="M12.4805 8.62833C12.6505 8.62833 12.7345 8.71233 12.7345 8.90034V21.2428C12.7345 21.4128 12.6505 21.4988 12.4805 21.4988H11.2725C11.1025 21.4988 11.0185 21.4148 11.0185 21.2428V8.90034C11.0185 8.71233 11.1025 8.62833 11.2725 8.62833H12.4805Z" fill="white"/>
<path d="M30.0008 8.62833C30.1708 8.62833 30.2388 8.73033 30.2548 8.88434L31.3608 21.2448C31.3788 21.4148 31.2768 21.5008 31.1068 21.5008H29.8828C29.7128 21.5008 29.6448 21.4168 29.6288 21.2448L28.8468 11.5884L25.1747 20.8708C25.1247 21.0068 25.0207 21.0748 24.8687 21.0748H23.6607C23.4907 21.0748 23.3887 21.0068 23.3367 20.8708L19.6646 11.5884L18.8826 21.2448C18.8666 21.4148 18.7966 21.5008 18.6266 21.5008H17.4186C17.2486 21.5008 17.1466 21.4168 17.1626 21.2448L18.2506 8.90234C18.2666 8.73233 18.3366 8.63033 18.5066 8.63033H19.8326C20.2406 8.63033 20.3426 8.80033 20.5306 9.29435L24.2547 18.9507L27.9788 9.29435C28.1668 8.80233 28.2668 8.63033 28.6768 8.63033H30.0028L30.0008 8.62833Z" fill="white"/>
<path d="M44.451 12.1145C44.451 13.7305 44.025 14.7326 42.955 14.9886V15.0386C44.417 15.2946 44.775 16.6207 44.775 18.0987C44.775 20.9728 43.211 21.5848 40.541 21.5848C39.5889 21.5848 36.8509 21.5508 35.6449 21.4668C35.4409 21.4508 35.3909 21.4168 35.3909 21.2108V8.91836C35.3909 8.71435 35.4409 8.68035 35.6449 8.66235C36.8529 8.57834 39.0449 8.54434 40.0149 8.54434C42.905 8.54434 44.453 9.32637 44.453 12.1145H44.451ZM37.1069 10.0564V14.3926H39.1989C41.767 14.3926 42.719 14.3086 42.719 12.2845C42.719 10.4144 41.801 10.0564 39.8629 10.0564H37.1089H37.1069ZM37.1069 15.7686V20.0708H40.575C42.259 20.0708 43.057 19.7308 43.057 18.0307C43.057 16.1086 42.087 15.7686 40.609 15.7686H37.1069Z" fill="white"/>
<path d="M54.9572 10.5324L57.8653 21.2268C57.8993 21.4488 57.8653 21.4988 57.6613 21.4988H56.3353C56.1992 21.4988 56.1652 21.4488 56.1152 21.2268L55.0612 17.4687H49.9431L48.8711 21.2268C48.8191 21.4488 48.8031 21.4988 48.6491 21.4988H47.3231C47.1191 21.4988 47.0851 21.4488 47.1191 21.2268L50.1291 10.5324C50.6212 8.78034 50.9112 8.54233 52.4932 8.54233C54.2452 8.54233 54.4832 8.78034 54.9592 10.5324H54.9572ZM51.7612 10.9404L50.3671 15.9726H54.6692L53.3432 10.9404C53.1232 10.1584 53.0892 10.0384 52.4932 10.0384C51.9992 10.0384 51.9652 10.1564 51.7612 10.9404Z" fill="white"/>
<path d="M68.8635 8.71435C69.0335 8.73235 69.1355 8.83435 69.1355 9.00436V9.80439C69.1355 9.97439 69.0495 10.0604 68.8795 10.0604H65.6994C62.7574 10.0604 62.2474 11.1824 62.2474 15.0766C62.2474 18.9707 62.7574 20.0748 65.6994 20.0748H68.8795C69.0495 20.0748 69.1355 20.1588 69.1355 20.3308V21.1308C69.1355 21.3008 69.0335 21.4028 68.8635 21.4368C68.0134 21.5548 66.8054 21.5888 65.7014 21.5888C61.5533 21.5888 60.5333 20.1088 60.5333 15.0766C60.5333 10.0444 61.5533 8.54834 65.7014 8.54834C66.8074 8.54834 68.0134 8.59834 68.8635 8.71835V8.71435Z" fill="white"/>
<path d="M82.5137 8.62833C82.6837 8.62833 82.7697 8.71233 82.7697 8.90034V21.2428C82.7697 21.4128 82.6837 21.4988 82.5137 21.4988H81.3057C81.1357 21.4988 81.0497 21.4148 81.0497 21.2428V15.7166H74.1295V21.2428C74.1295 21.4128 74.0455 21.4988 73.8755 21.4988H72.6675C72.4975 21.4988 72.4135 21.4148 72.4135 21.2428V8.90034C72.4135 8.71233 72.4975 8.62833 72.6675 8.62833H73.8755C74.0455 8.62833 74.1295 8.71233 74.1295 8.90034V14.2045H81.0497V8.90034C81.0497 8.71233 81.1357 8.62833 81.3057 8.62833H82.5137Z" fill="white"/>
<path d="M134.967 8.71435C135.137 8.73235 135.239 8.83435 135.239 9.00436V9.80439C135.239 9.97439 135.155 10.0604 134.985 10.0604H131.702C128.76 10.0604 128.25 11.2004 128.25 15.0926C128.25 18.9847 128.76 20.0748 131.702 20.0748H134.287V15.4166C134.287 15.2466 134.371 15.1446 134.541 15.1446H135.663C135.833 15.1446 135.917 15.2466 135.917 15.4166V20.4828C135.917 20.6688 135.901 20.7388 135.867 20.8228C135.509 21.5888 133.197 21.5888 131.7 21.5888C127.552 21.5888 126.532 20.1268 126.532 15.0946C126.532 10.0624 127.552 8.54834 131.7 8.54834C132.739 8.54834 134.115 8.59834 134.965 8.71835L134.967 8.71435Z" fill="white"/>
<path d="M149.061 12.6925C149.061 15.4126 148.313 16.3146 146.273 16.5867L149.147 21.1608C149.283 21.3468 149.197 21.5008 148.943 21.5008H147.855C147.463 21.5008 147.345 21.3808 147.175 21.1268L144.369 16.6887H141.801V21.2448C141.801 21.4488 141.751 21.5008 141.547 21.5008H140.339C140.135 21.5008 140.085 21.4508 140.085 21.2448V8.91836C140.085 8.71435 140.135 8.68035 140.339 8.66235C141.547 8.57834 143.009 8.54434 143.961 8.54434C147.787 8.54434 149.061 9.19037 149.061 12.6925ZM141.801 10.0564V15.2246H143.807C146.613 15.2246 147.327 15.1066 147.327 12.7245C147.327 10.3424 146.613 10.0544 143.807 10.0544H141.801V10.0564Z" fill="white"/>
<path d="M162.949 8.62833C163.153 8.62833 163.205 8.69633 163.205 8.88434V15.0906C163.205 20.2928 162.185 21.5848 158.139 21.5848C154.093 21.5848 153.089 20.2928 153.089 15.0906V8.88434C153.089 8.69633 153.139 8.62833 153.345 8.62833H154.553C154.757 8.62833 154.809 8.69633 154.809 8.88434V15.0906C154.809 19.0867 155.489 20.0728 158.141 20.0728C160.793 20.0728 161.491 19.0867 161.491 15.0906V8.88434C161.491 8.69633 161.541 8.62833 161.747 8.62833H162.955H162.949Z" fill="white"/>
<path d="M176.567 12.6925C176.567 16.2626 175.291 16.6887 171.467 16.6887H169.307V21.2448C169.307 21.4488 169.257 21.5008 169.053 21.5008H167.845C167.641 21.5008 167.591 21.4508 167.591 21.2448V8.91836C167.591 8.71435 167.641 8.68035 167.845 8.66235C169.053 8.57834 170.515 8.54434 171.467 8.54434C175.293 8.54434 176.567 9.19037 176.567 12.6925ZM169.307 10.0564V15.2246H171.313C174.119 15.2246 174.833 15.1066 174.833 12.7245C174.833 10.3424 174.119 10.0544 171.313 10.0544H169.307V10.0564Z" fill="white"/>
<path d="M189.283 12.6925C189.283 16.2626 188.007 16.6887 184.183 16.6887H182.023V21.2448C182.023 21.4488 181.973 21.5008 181.767 21.5008H180.559C180.355 21.5008 180.303 21.4508 180.303 21.2448V8.91836C180.303 8.71435 180.353 8.68035 180.559 8.66235C181.767 8.57834 183.229 8.54434 184.181 8.54434C188.007 8.54434 189.281 9.19037 189.281 12.6925H189.283ZM182.023 10.0564V15.2246H184.029C186.835 15.2246 187.549 15.1066 187.549 12.7245C187.549 10.3424 186.835 10.0544 184.029 10.0544H182.023V10.0564Z" fill="white"/>
<path d="M201.234 8.62833C201.404 8.62833 201.49 8.71233 201.49 8.88434V9.88838C201.49 10.0584 201.406 10.1424 201.234 10.1424H194.74V14.5126H200.656C200.826 14.5126 200.91 14.5986 200.91 14.7686V15.7546C200.91 15.9246 200.826 16.0106 200.656 16.0106H194.74V19.9888H201.234C201.404 19.9888 201.49 20.0728 201.49 20.2428V21.2468C201.49 21.4168 201.406 21.5028 201.234 21.5028H193.278C193.108 21.5028 193.024 21.4188 193.024 21.2468V8.88634C193.024 8.71633 193.108 8.63033 193.278 8.63033H201.234V8.62833Z" fill="white"/>
</svg>
